<svg width="340" height="420" viewBox="0 0 340 420" fill="none" xmlns="http://www.w3.org/2000/svg">
<path d="M38.5 417.5H64.5V418C64.5 418.828 63.8284 419.5 63 419.5H40C39.1716 419.5 38.5 418.828 38.5 418V417.5Z" fill="#181818" stroke="black"/>
<path d="M275.5 417.5H301.5V418C301.5 418.828 300.828 419.5 300 419.5H277C276.172 419.5 275.5 418.828 275.5 418V417.5Z" fill="#181818" stroke="black"/>
<rect x="15.5" y="95.5" width="309" height="322" fill="url(#paint0_linear_1_91)" stroke="black"/>
<rect x="15.5" y="95.5" width="309" height="13" fill="#181818" stroke="black"/>
<rect y="128" width="4" height="19" rx="1" fill="#D9D9D9"/>
<rect x="0.5" y="128.5" width="3" height="18" rx="0.5" fill="#181818" stroke="black"/>
<rect x="336.5" y="128.5" width="3" height="18" rx="0.5" fill="#181818" stroke="black"/>
<circle cx="107" cy="207" r="52.5" fill="#2A2A2A" stroke="black"/>
<circle cx="107" cy="207" r="20.5" fill="#181818" stroke="black"/>
<circle cx="234" cy="207" r="52.5" fill="#2A2A2A" stroke="black"/>
<circle cx="234" cy="207" r="20.5" fill="#181818" stroke="black"/>
<path fill-rule="evenodd" clip-rule="evenodd" d="M8 1C8 0.447716 8.44772 0 9 0H331C331.552 0 332 0.447716 332 1V8V13V149C332 149.552 331.552 150 331 150H328C327.448 150 327 149.552 327 149V13H13V149C13 149.552 12.5523 150 12 150H9C8.44772 150 8 149.552 8 149V13V8V1Z" fill="#181818"/>
<circle cx="40.5" cy="122.5" r="2.5" fill="#2A2A2A"/>
<circle cx="40.5" cy="122.5" r="2.5" fill="#2A2A2A"/>
<circle cx="40.5" cy="122.5" r="2.5" fill="#2A2A2A"/>
<circle cx="56.5" cy="122.5" r="2.5" fill="#2A2A2A"/>
<circle cx="56.5" cy="122.5" r="2.5" fill="#2A2A2A"/>
<circle cx="56.5" cy="122.5" r="2.5" fill="#2A2A2A"/>
<circle cx="48.5" cy="122.5" r="2.5" fill="#2A2A2A"/>
<circle cx="48.5" cy="122.5" r="2.5" fill="#2A2A2A"/>
<circle cx="48.5" cy="122.5" r="2.5" fill="#2A2A2A"/>
<circle cx="40.5" cy="130.5" r="2.5" fill="#2A2A2A"/>
<circle cx="40.5" cy="130.5" r="2.5" fill="#2A2A2A"/>
<circle cx="40.5" cy="130.5" r="2.5" fill="#2A2A2A"/>
<circle cx="56.5" cy="130.5" r="2.5" fill="#2A2A2A"/>
<circle cx="56.5" cy="130.5" r="2.5" fill="#2A2A2A"/>
<circle cx="56.5" cy="130.5" r="2.5" fill="#2A2A2A"/>
<circle cx="48.5" cy="130.5" r="2.5" fill="#2A2A2A"/>
<circle cx="48.5" cy="130.5" r="2.5" fill="#2A2A2A"/>
<circle cx="48.5" cy="130.5" r="2.5" fill="#2A2A2A"/>
<circle cx="40.5" cy="138.5" r="2.5" fill="#2A2A2A"/>
<circle cx="40.5" cy="138.5" r="2.5" fill="#2A2A2A"/>
<circle cx="40.5" cy="138.5" r="2.5" fill="#2A2A2A"/>
<circle cx="56.5" cy="138.5" r="2.5" fill="#2A2A2A"/>
<circle cx="56.5" cy="138.5" r="2.5" fill="#2A2A2A"/>
<circle cx="56.5" cy="138.5" r="2.5" fill="#2A2A2A"/>
<circle cx="48.5" cy="138.5" r="2.5" fill="#2A2A2A"/>
<circle cx="48.5" cy="138.5" r="2.5" fill="#2A2A2A"/>
<circle cx="48.5" cy="138.5" r="2.5" fill="#2A2A2A"/>
<circle cx="40.5" cy="146.5" r="2.5" fill="#2A2A2A"/>
<circle cx="40.5" cy="146.5" r="2.5" fill="#2A2A2A"/>
<circle cx="40.5" cy="146.5" r="2.5" fill="#2A2A2A"/>
<circle cx="32.5" cy="130.5" r="2.5" fill="#2A2A2A"/>
<circle cx="32.5" cy="130.5" r="2.5" fill="#2A2A2A"/>
<circle cx="32.5" cy="130.5" r="2.5" fill="#2A2A2A"/>
<circle cx="32.5" cy="138.5" r="2.5" fill="#2A2A2A"/>
<circle cx="32.5" cy="138.5" r="2.5" fill="#2A2A2A"/>
<circle cx="32.5" cy="138.5" r="2.5" fill="#2A2A2A"/>
<circle cx="32.5" cy="146.5" r="2.5" fill="#2A2A2A"/>
<circle cx="32.5" cy="146.5" r="2.5" fill="#2A2A2A"/>
<circle cx="32.5" cy="146.5" r="2.5" fill="#2A2A2A"/>
<circle cx="64.5" cy="130.5" r="2.5" fill="#2A2A2A"/>
<circle cx="64.5" cy="130.5" r="2.5" fill="#2A2A2A"/>
<circle cx="64.5" cy="130.5" r="2.5" fill="#2A2A2A"/>
<circle cx="64.5" cy="138.5" r="2.5" fill="#2A2A2A"/>
<circle cx="64.5" cy="138.5" r="2.5" fill="#2A2A2A"/>
<circle cx="64.5" cy="138.5" r="2.5" fill="#2A2A2A"/>
<circle cx="64.5" cy="146.5" r="2.5" fill="#2A2A2A"/>
<circle cx="64.5" cy="146.5" r="2.5" fill="#2A2A2A"/>
<circle cx="64.5" cy="146.5" r="2.5" fill="#2A2A2A"/>
<circle cx="56.5" cy="146.5" r="2.5" fill="#2A2A2A"/>
<circle cx="56.5" cy="146.5" r="2.5" fill="#2A2A2A"/>
<circle cx="56.5" cy="146.5" r="2.5" fill="#2A2A2A"/>
<circle cx="48.5" cy="146.5" r="2.5" fill="#2A2A2A"/>
<circle cx="48.5" cy="146.5" r="2.5" fill="#2A2A2A"/>
<circle cx="48.5" cy="146.5" r="2.5" fill="#2A2A2A"/>
<circle cx="40.5" cy="154.5" r="2.5" fill="#2A2A2A"/>
<circle cx="40.5" cy="154.5" r="2.5" fill="#2A2A2A"/>
<circle cx="40.5" cy="154.5" r="2.5" fill="#2A2A2A"/>
<circle cx="56.5" cy="154.5" r="2.5" fill="#2A2A2A"/>
<circle cx="56.5" cy="154.5" r="2.5" fill="#2A2A2A"/>
<circle cx="56.5" cy="154.5" r="2.5" fill="#2A2A2A"/>
<circle cx="48.5" cy="154.5" r="2.5" fill="#2A2A2A"/>
<circle cx="48.5" cy="154.5" r="2.5" fill="#2A2A2A"/>
<circle cx="48.5" cy="154.5" r="2.5" fill="#2A2A2A"/>
<circle cx="283.5" cy="122.5" r="2.5" fill="#2A2A2A"/>
<circle cx="283.5" cy="122.5" r="2.5" fill="#2A2A2A"/>
<circle cx="283.5" cy="122.5" r="2.5" fill="#2A2A2A"/>
<circle cx="299.5" cy="122.5" r="2.5" fill="#2A2A2A"/>
<circle cx="299.5" cy="122.5" r="2.5" fill="#2A2A2A"/>
<circle cx="299.5" cy="122.5" r="2.5" fill="#2A2A2A"/>
<circle cx="291.5" cy="122.5" r="2.5" fill="#2A2A2A"/>
<circle cx="291.5" cy="122.5" r="2.5" fill="#2A2A2A"/>
<circle cx="291.5" cy="122.5" r="2.5" fill="#2A2A2A"/>
<circle cx="283.5" cy="130.5" r="2.5" fill="#2A2A2A"/>
<circle cx="283.5" cy="130.5" r="2.5" fill="#2A2A2A"/>
<circle cx="283.5" cy="130.5" r="2.5" fill="#2A2A2A"/>
<circle cx="299.5" cy="130.5" r="2.5" fill="#2A2A2A"/>
<circle cx="299.5" cy="130.5" r="2.5" fill="#2A2A2A"/>
<circle cx="299.5" cy="130.5" r="2.5" fill="#2A2A2A"/>
<circle cx="291.5" cy="130.5" r="2.5" fill="#2A2A2A"/>
<circle cx="291.5" cy="130.5" r="2.5" fill="#2A2A2A"/>
<circle cx="291.5" cy="130.5" r="2.5" fill="#2A2A2A"/>
<circle cx="283.5" cy="138.5" r="2.5" fill="#2A2A2A"/>
<circle cx="283.5" cy="138.5" r="2.5" fill="#2A2A2A"/>
<circle cx="283.5" cy="138.5" r="2.5" fill="#2A2A2A"/>
<circle cx="299.5" cy="138.5" r="2.5" fill="#2A2A2A"/>
<circle cx="299.5" cy="138.5" r="2.5" fill="#2A2A2A"/>
<circle cx="299.5" cy="138.5" r="2.5" fill="#2A2A2A"/>
<circle cx="291.5" cy="138.5" r="2.5" fill="#2A2A2A"/>
<circle cx="291.5" cy="138.5" r="2.5" fill="#2A2A2A"/>
<circle cx="291.5" cy="138.5" r="2.5" fill="#2A2A2A"/>
<circle cx="283.5" cy="146.5" r="2.5" fill="#2A2A2A"/>
<circle cx="283.5" cy="146.5" r="2.5" fill="#2A2A2A"/>
<circle cx="283.5" cy="146.5" r="2.5" fill="#2A2A2A"/>
<circle cx="275.5" cy="130.5" r="2.5" fill="#2A2A2A"/>
<circle cx="275.5" cy="130.5" r="2.5" fill="#2A2A2A"/>
<circle cx="275.5" cy="130.5" r="2.5" fill="#2A2A2A"/>
<circle cx="275.5" cy="138.5" r="2.5" fill="#2A2A2A"/>
<circle cx="275.5" cy="138.5" r="2.5" fill="#2A2A2A"/>
<circle cx="275.5" cy="138.5" r="2.5" fill="#2A2A2A"/>
<circle cx="275.5" cy="146.5" r="2.5" fill="#2A2A2A"/>
<circle cx="275.5" cy="146.5" r="2.5" fill="#2A2A2A"/>
<circle cx="275.5" cy="146.5" r="2.5" fill="#2A2A2A"/>
<circle cx="307.5" cy="130.5" r="2.5" fill="#2A2A2A"/>
<circle cx="307.5" cy="130.5" r="2.5" fill="#2A2A2A"/>
<circle cx="307.5" cy="130.5" r="2.5" fill="#2A2A2A"/>
<circle cx="307.5" cy="138.5" r="2.5" fill="#2A2A2A"/>
<circle cx="307.5" cy="138.5" r="2.5" fill="#2A2A2A"/>
<circle cx="307.5" cy="138.5" r="2.5" fill="#2A2A2A"/>
<circle cx="307.5" cy="146.5" r="2.5" fill="#2A2A2A"/>
<circle cx="307.5" cy="146.5" r="2.5" fill="#2A2A2A"/>
<circle cx="307.5" cy="146.5" r="2.5" fill="#2A2A2A"/>
<circle cx="299.5" cy="146.5" r="2.5" fill="#2A2A2A"/>
<circle cx="299.5" cy="146.5" r="2.5" fill="#2A2A2A"/>
<circle cx="299.5" cy="146.5" r="2.5" fill="#2A2A2A"/>
<circle cx="291.5" cy="146.5" r="2.5" fill="#2A2A2A"/>
<circle cx="291.5" cy="146.5" r="2.5" fill="#2A2A2A"/>
<circle cx="291.5" cy="146.5" r="2.5" fill="#2A2A2A"/>
<circle cx="283.5" cy="154.5" r="2.5" fill="#2A2A2A"/>
<circle cx="283.5" cy="154.5" r="2.5" fill="#2A2A2A"/>
<circle cx="283.5" cy="154.5" r="2.5" fill="#2A2A2A"/>
<circle cx="299.5" cy="154.5" r="2.5" fill="#2A2A2A"/>
<circle cx="299.5" cy="154.5" r="2.5" fill="#2A2A2A"/>
<circle cx="299.5" cy="154.5" r="2.5" fill="#2A2A2A"/>
<circle cx="291.5" cy="154.5" r="2.5" fill="#2A2A2A"/>
<circle cx="291.5" cy="154.5" r="2.5" fill="#2A2A2A"/>
<circle cx="291.5" cy="154.5" r="2.5" fill="#2A2A2A"/>
<path d="M31.8835 4.72727V5.15341H30.1875V4.72727H31.8835ZM30.6818 3.94318H31.1847V7.0625C31.1847 7.20455 31.2053 7.31108 31.2464 7.3821C31.2891 7.4517 31.343 7.49858 31.4084 7.52273C31.4751 7.54545 31.5455 7.55682 31.6193 7.55682C31.6747 7.55682 31.7202 7.55398 31.7557 7.5483C31.7912 7.54119 31.8196 7.53551 31.8409 7.53125L31.9432 7.98295C31.9091 7.99574 31.8615 8.00852 31.8004 8.02131C31.7393 8.03551 31.6619 8.04261 31.5682 8.04261C31.4261 8.04261 31.2869 8.01207 31.1506 7.95099C31.0156 7.88991 30.9034 7.79688 30.8139 7.67188C30.7259 7.54688 30.6818 7.3892 30.6818 7.19886V3.94318ZM33.9769 8.06818C33.6616 8.06818 33.3896 7.99858 33.1609 7.85938C32.9336 7.71875 32.7582 7.52273 32.6346 7.27131C32.5124 7.01847 32.4513 6.72443 32.4513 6.3892C32.4513 6.05398 32.5124 5.75852 32.6346 5.50284C32.7582 5.24574 32.93 5.04545 33.1502 4.90199C33.3718 4.7571 33.6303 4.68466 33.9258 4.68466C34.0962 4.68466 34.2646 4.71307 34.4308 4.76989C34.5969 4.8267 34.7482 4.91903 34.8846 5.04688C35.021 5.1733 35.1296 5.34091 35.2106 5.54972C35.2915 5.75852 35.332 6.01562 35.332 6.32102V6.53409H32.8093V6.09943H34.8207C34.8207 5.91477 34.7837 5.75 34.7099 5.60511C34.6374 5.46023 34.5337 5.34588 34.3988 5.26207C34.2653 5.17827 34.1076 5.13636 33.9258 5.13636C33.7255 5.13636 33.5522 5.18608 33.4059 5.28551C33.261 5.38352 33.1495 5.51136 33.0714 5.66903C32.9933 5.8267 32.9542 5.99574 32.9542 6.17614V6.46591C32.9542 6.71307 32.9968 6.92259 33.082 7.09446C33.1687 7.26491 33.2887 7.39489 33.4421 7.48438C33.5955 7.57244 33.7738 7.61648 33.9769 7.61648C34.109 7.61648 34.2283 7.59801 34.3349 7.56108C34.4428 7.52273 34.5359 7.46591 34.614 7.39062C34.6921 7.31392 34.7525 7.21875 34.7951 7.10511L35.2809 7.24148C35.2298 7.40625 35.1438 7.55114 35.0231 7.67614C34.9023 7.79972 34.7532 7.89631 34.5756 7.96591C34.3981 8.03409 34.1985 8.06818 33.9769 8.06818ZM37.4691 8.06818C37.1538 8.06818 36.8817 7.99858 36.6531 7.85938C36.4258 7.71875 36.2504 7.52273 36.1268 7.27131C36.0046 7.01847 35.9435 6.72443 35.9435 6.3892C35.9435 6.05398 36.0046 5.75852 36.1268 5.50284C36.2504 5.24574 36.4222 5.04545 36.6424 4.90199C36.864 4.7571 37.1225 4.68466 37.418 4.68466C37.5884 4.68466 37.7567 4.71307 37.9229 4.76989C38.0891 4.8267 38.2404 4.91903 38.3768 5.04688C38.5131 5.1733 38.6218 5.34091 38.7028 5.54972C38.7837 5.75852 38.8242 6.01562 38.8242 6.32102V6.53409H36.3015V6.09943H38.3129C38.3129 5.91477 38.2759 5.75 38.2021 5.60511C38.1296 5.46023 38.0259 5.34588 37.891 5.26207C37.7575 5.17827 37.5998 5.13636 37.418 5.13636C37.2177 5.13636 37.0444 5.18608 36.8981 5.28551C36.7532 5.38352 36.6417 5.51136 36.5636 5.66903C36.4854 5.8267 36.4464 5.99574 36.4464 6.17614V6.46591C36.4464 6.71307 36.489 6.92259 36.5742 7.09446C36.6609 7.26491 36.7809 7.39489 36.9343 7.48438C37.0877 7.57244 37.266 7.61648 37.4691 7.61648C37.6012 7.61648 37.7205 7.59801 37.8271 7.56108C37.935 7.52273 38.0281 7.46591 38.1062 7.39062C38.1843 7.31392 38.2447 7.21875 38.2873 7.10511L38.7731 7.24148C38.7219 7.40625 38.636 7.55114 38.5153 7.67614C38.3945 7.79972 38.2454 7.89631 38.0678 7.96591C37.8903 8.03409 37.6907 8.06818 37.4691 8.06818ZM40.092 6.03125V8H39.5891V4.72727H40.0749V5.23864H40.1175C40.1942 5.07244 40.3107 4.93892 40.467 4.83807C40.6232 4.7358 40.8249 4.68466 41.0721 4.68466C41.2937 4.68466 41.4876 4.73011 41.6538 4.82102C41.82 4.91051 41.9492 5.04688 42.0415 5.23011C42.1339 5.41193 42.18 5.64205 42.18 5.92045V8H41.6772V5.95455C41.6772 5.69744 41.6104 5.49716 41.4769 5.35369C41.3434 5.20881 41.1602 5.13636 40.9272 5.13636C40.7667 5.13636 40.6232 5.17116 40.4968 5.24077C40.3718 5.31037 40.2731 5.41193 40.2006 5.54545C40.1282 5.67898 40.092 5.84091 40.092 6.03125ZM44.062 8.0767C43.8546 8.0767 43.6664 8.03764 43.4973 7.95952C43.3283 7.87997 43.1941 7.76562 43.0946 7.61648C42.9952 7.46591 42.9455 7.28409 42.9455 7.07102C42.9455 6.88352 42.9824 6.73153 43.0563 6.61506C43.1301 6.49716 43.2289 6.40483 43.3525 6.33807C43.476 6.27131 43.6124 6.22159 43.7615 6.18892C43.9121 6.15483 44.0634 6.12784 44.2154 6.10795C44.4142 6.08239 44.5755 6.06321 44.699 6.05043C44.824 6.03622 44.915 6.01278 44.9718 5.98011C45.03 5.94744 45.0591 5.89062 45.0591 5.80966V5.79261C45.0591 5.58239 45.0016 5.41903 44.8865 5.30256C44.7729 5.18608 44.6003 5.12784 44.3688 5.12784C44.1287 5.12784 43.9405 5.1804 43.8042 5.28551C43.6678 5.39062 43.5719 5.50284 43.5165 5.62216L43.0392 5.4517C43.1245 5.25284 43.2381 5.09801 43.3801 4.98722C43.5236 4.875 43.6799 4.79687 43.8489 4.75284C44.0194 4.70739 44.187 4.68466 44.3517 4.68466C44.4569 4.68466 44.5776 4.69744 44.714 4.72301C44.8517 4.74716 44.9846 4.79759 45.1124 4.87429C45.2417 4.95099 45.3489 5.06676 45.4341 5.22159C45.5194 5.37642 45.562 5.58381 45.562 5.84375V8H45.0591V7.55682H45.0336C44.9995 7.62784 44.9426 7.70384 44.8631 7.7848C44.7836 7.86577 44.6777 7.93466 44.5456 7.99148C44.4135 8.0483 44.2523 8.0767 44.062 8.0767ZM44.1387 7.625C44.3375 7.625 44.5051 7.58594 44.6415 7.50781C44.7793 7.42969 44.883 7.32884 44.9526 7.20526C45.0236 7.08168 45.0591 6.9517 45.0591 6.81534V6.35511C45.0378 6.38068 44.9909 6.40412 44.9185 6.42543C44.8475 6.44531 44.7651 6.46307 44.6713 6.47869C44.579 6.4929 44.4888 6.50568 44.4007 6.51705C44.3141 6.52699 44.2438 6.53551 44.1898 6.54261C44.0591 6.55966 43.937 6.58736 43.8233 6.62571C43.7111 6.66264 43.6202 6.71875 43.5506 6.79403C43.4824 6.8679 43.4483 6.96875 43.4483 7.09659C43.4483 7.27131 43.513 7.40341 43.6422 7.4929C43.7729 7.58097 43.9384 7.625 44.1387 7.625ZM47.8008 9.29545C47.5579 9.29545 47.3491 9.2642 47.1744 9.2017C46.9996 9.14062 46.854 9.05966 46.7376 8.95881C46.6225 8.85938 46.5309 8.75284 46.4627 8.6392L46.8633 8.35795C46.9087 8.41761 46.9663 8.4858 47.0359 8.5625C47.1055 8.64062 47.2006 8.7081 47.3214 8.76491C47.4435 8.82315 47.6033 8.85227 47.8008 8.85227C48.065 8.85227 48.283 8.78835 48.4549 8.66051C48.6268 8.53267 48.7127 8.33239 48.7127 8.05966V7.39489H48.6701C48.6332 7.45455 48.5806 7.52841 48.5124 7.61648C48.4457 7.70312 48.3491 7.78054 48.2227 7.84872C48.0977 7.91548 47.9286 7.94886 47.7156 7.94886C47.4513 7.94886 47.2141 7.88636 47.0039 7.76136C46.7951 7.63636 46.6296 7.45455 46.5075 7.21591C46.3867 6.97727 46.3263 6.6875 46.3263 6.34659C46.3263 6.01136 46.3853 5.71946 46.5032 5.47088C46.6211 5.22088 46.7852 5.0277 46.9954 4.89134C47.2056 4.75355 47.4485 4.68466 47.7241 4.68466C47.9371 4.68466 48.1062 4.72017 48.2312 4.79119C48.3576 4.8608 48.4542 4.94034 48.521 5.02983C48.5891 5.1179 48.6417 5.19034 48.6786 5.24716H48.7298V4.72727H49.2156V8.09375C49.2156 8.375 49.1516 8.60369 49.0238 8.77983C48.8974 8.95739 48.7269 9.08736 48.5124 9.16974C48.2994 9.25355 48.0621 9.29545 47.8008 9.29545ZM47.7837 7.49716C47.9854 7.49716 48.1559 7.45099 48.2951 7.35866C48.4343 7.26634 48.5401 7.13352 48.6126 6.96023C48.685 6.78693 48.7212 6.57955 48.7212 6.33807C48.7212 6.10227 48.6857 5.89418 48.6147 5.71378C48.5437 5.53338 48.4386 5.39205 48.2994 5.28977C48.1602 5.1875 47.9883 5.13636 47.7837 5.13636C47.5707 5.13636 47.3931 5.19034 47.2511 5.2983C47.1104 5.40625 47.0046 5.55114 46.9336 5.73295C46.864 5.91477 46.8292 6.11648 46.8292 6.33807C46.8292 6.56534 46.8647 6.76634 46.9357 6.94105C47.0082 7.11435 47.1147 7.25071 47.2553 7.35014C47.3974 7.44815 47.5735 7.49716 47.7837 7.49716ZM51.5082 8.06818C51.1928 8.06818 50.9208 7.99858 50.6921 7.85938C50.4648 7.71875 50.2894 7.52273 50.1658 7.27131C50.0437 7.01847 49.9826 6.72443 49.9826 6.3892C49.9826 6.05398 50.0437 5.75852 50.1658 5.50284C50.2894 5.24574 50.4613 5.04545 50.6815 4.90199C50.9031 4.7571 51.1616 4.68466 51.457 4.68466C51.6275 4.68466 51.7958 4.71307 51.962 4.76989C52.1282 4.8267 52.2795 4.91903 52.4158 5.04688C52.5522 5.1733 52.6609 5.34091 52.7418 5.54972C52.8228 5.75852 52.8633 6.01562 52.8633 6.32102V6.53409H50.3406V6.09943H52.3519C52.3519 5.91477 52.315 5.75 52.2411 5.60511C52.1687 5.46023 52.065 5.34588 51.93 5.26207C51.7965 5.17827 51.6388 5.13636 51.457 5.13636C51.2567 5.13636 51.0835 5.18608 50.9371 5.28551C50.7923 5.38352 50.6808 5.51136 50.6026 5.66903C50.5245 5.8267 50.4854 5.99574 50.4854 6.17614V6.46591C50.4854 6.71307 50.5281 6.92259 50.6133 7.09446C50.6999 7.26491 50.82 7.39489 50.9734 7.48438C51.1268 7.57244 51.305 7.61648 51.5082 7.61648C51.6403 7.61648 51.7596 7.59801 51.8661 7.56108C51.9741 7.52273 52.0671 7.46591 52.1452 7.39062C52.2234 7.31392 52.2837 7.21875 52.3263 7.10511L52.8121 7.24148C52.761 7.40625 52.6751 7.55114 52.5543 7.67614C52.4336 7.79972 52.2844 7.89631 52.1069 7.96591C51.9293 8.03409 51.7298 8.06818 51.5082 8.06818ZM56.6879 8.06818C56.3725 8.06818 56.1005 7.99858 55.8718 7.85938C55.6445 7.71875 55.4691 7.52273 55.3455 7.27131C55.2234 7.01847 55.1623 6.72443 55.1623 6.3892C55.1623 6.05398 55.2234 5.75852 55.3455 5.50284C55.4691 5.24574 55.641 5.04545 55.8612 4.90199C56.0827 4.7571 56.3413 4.68466 56.6367 4.68466C56.8072 4.68466 56.9755 4.71307 57.1417 4.76989C57.3079 4.8267 57.4592 4.91903 57.5955 5.04688C57.7319 5.1733 57.8406 5.34091 57.9215 5.54972C58.0025 5.75852 58.043 6.01562 58.043 6.32102V6.53409H55.5202V6.09943H57.5316C57.5316 5.91477 57.4947 5.75 57.4208 5.60511C57.3484 5.46023 57.2447 5.34588 57.1097 5.26207C56.9762 5.17827 56.8185 5.13636 56.6367 5.13636C56.4364 5.13636 56.2631 5.18608 56.1168 5.28551C55.9719 5.38352 55.8604 5.51136 55.7823 5.66903C55.7042 5.8267 55.6651 5.99574 55.6651 6.17614V6.46591C55.6651 6.71307 55.7077 6.92259 55.793 7.09446C55.8796 7.26491 55.9996 7.39489 56.1531 7.48438C56.3065 7.57244 56.4847 7.61648 56.6879 7.61648C56.82 7.61648 56.9393 7.59801 57.0458 7.56108C57.1538 7.52273 57.2468 7.46591 57.3249 7.39062C57.4031 7.31392 57.4634 7.21875 57.506 7.10511L57.9918 7.24148C57.9407 7.40625 57.8548 7.55114 57.734 7.67614C57.6133 7.79972 57.4641 7.89631 57.2866 7.96591C57.109 8.03409 56.9094 8.06818 56.6879 8.06818ZM59.3107 6.03125V8H58.8079V4.72727H59.2937V5.23864H59.3363C59.413 5.07244 59.5295 4.93892 59.6857 4.83807C59.842 4.7358 60.0437 4.68466 60.2908 4.68466C60.5124 4.68466 60.7063 4.73011 60.8725 4.82102C61.0387 4.91051 61.168 5.04688 61.2603 5.23011C61.3526 5.41193 61.3988 5.64205 61.3988 5.92045V8H60.896V5.95455C60.896 5.69744 60.8292 5.49716 60.6957 5.35369C60.5621 5.20881 60.3789 5.13636 60.146 5.13636C59.9854 5.13636 59.842 5.17116 59.7156 5.24077C59.5906 5.31037 59.4918 5.41193 59.4194 5.54545C59.3469 5.67898 59.3107 5.84091 59.3107 6.03125ZM63.6387 9.29545C63.3958 9.29545 63.187 9.2642 63.0123 9.2017C62.8375 9.14062 62.6919 9.05966 62.5755 8.95881C62.4604 8.85938 62.3688 8.75284 62.3006 8.6392L62.7012 8.35795C62.7466 8.41761 62.8042 8.4858 62.8738 8.5625C62.9434 8.64062 63.0385 8.7081 63.1593 8.76491C63.2814 8.82315 63.4412 8.85227 63.6387 8.85227C63.9029 8.85227 64.1209 8.78835 64.2928 8.66051C64.4647 8.53267 64.5506 8.33239 64.5506 8.05966V7.39489H64.508C64.4711 7.45455 64.4185 7.52841 64.3503 7.61648C64.2836 7.70312 64.187 7.78054 64.0605 7.84872C63.9355 7.91548 63.7665 7.94886 63.5534 7.94886C63.2892 7.94886 63.052 7.88636 62.8418 7.76136C62.633 7.63636 62.4675 7.45455 62.3453 7.21591C62.2246 6.97727 62.1642 6.6875 62.1642 6.34659C62.1642 6.01136 62.2232 5.71946 62.3411 5.47088C62.459 5.22088 62.623 5.0277 62.8333 4.89134C63.0435 4.75355 63.2864 4.68466 63.562 4.68466C63.775 4.68466 63.9441 4.72017 64.0691 4.79119C64.1955 4.8608 64.2921 4.94034 64.3588 5.02983C64.427 5.1179 64.4796 5.19034 64.5165 5.24716H64.5676V4.72727H65.0534V8.09375C65.0534 8.375 64.9895 8.60369 64.8617 8.77983C64.7353 8.95739 64.5648 9.08736 64.3503 9.16974C64.1373 9.25355 63.9 9.29545 63.6387 9.29545ZM63.6216 7.49716C63.8233 7.49716 63.9938 7.45099 64.133 7.35866C64.2722 7.26634 64.378 7.13352 64.4505 6.96023C64.5229 6.78693 64.5591 6.57955 64.5591 6.33807C64.5591 6.10227 64.5236 5.89418 64.4526 5.71378C64.3816 5.53338 64.2765 5.39205 64.1373 5.28977C63.998 5.1875 63.8262 5.13636 63.6216 5.13636C63.4086 5.13636 63.231 5.19034 63.089 5.2983C62.9483 5.40625 62.8425 5.55114 62.7715 5.73295C62.7019 5.91477 62.6671 6.11648 62.6671 6.33807C62.6671 6.56534 62.7026 6.76634 62.7736 6.94105C62.8461 7.11435 62.9526 7.25071 63.0932 7.35014C63.2353 7.44815 63.4114 7.49716 63.6216 7.49716ZM65.9739 8V4.72727H66.4767V8H65.9739ZM66.2296 4.18182C66.1316 4.18182 66.0471 4.14844 65.976 4.08168C65.9064 4.01491 65.8716 3.93466 65.8716 3.84091C65.8716 3.74716 65.9064 3.6669 65.976 3.60014C66.0471 3.53338 66.1316 3.5 66.2296 3.5C66.3276 3.5 66.4114 3.53338 66.481 3.60014C66.552 3.6669 66.5875 3.74716 66.5875 3.84091C66.5875 3.93466 66.552 4.01491 66.481 4.08168C66.4114 4.14844 66.3276 4.18182 66.2296 4.18182ZM67.9006 6.03125V8H67.3977V4.72727H67.8835V5.23864H67.9261C68.0028 5.07244 68.1193 4.93892 68.2756 4.83807C68.4318 4.7358 68.6335 4.68466 68.8807 4.68466C69.1023 4.68466 69.2962 4.73011 69.4624 4.82102C69.6286 4.91051 69.7578 5.04688 69.8501 5.23011C69.9425 5.41193 69.9886 5.64205 69.9886 5.92045V8H69.4858V5.95455C69.4858 5.69744 69.419 5.49716 69.2855 5.35369C69.152 5.20881 68.9688 5.13636 68.7358 5.13636C68.5753 5.13636 68.4318 5.17116 68.3054 5.24077C68.1804 5.31037 68.0817 5.41193 68.0092 5.54545C67.9368 5.67898 67.9006 5.84091 67.9006 6.03125ZM72.2797 8.06818C71.9643 8.06818 71.6923 7.99858 71.4636 7.85938C71.2363 7.71875 71.0609 7.52273 70.9373 7.27131C70.8152 7.01847 70.7541 6.72443 70.7541 6.3892C70.7541 6.05398 70.8152 5.75852 70.9373 5.50284C71.0609 5.24574 71.2328 5.04545 71.4529 4.90199C71.6745 4.7571 71.9331 4.68466 72.2285 4.68466C72.399 4.68466 72.5673 4.71307 72.7335 4.76989C72.8997 4.8267 73.051 4.91903 73.1873 5.04688C73.3237 5.1733 73.4324 5.34091 73.5133 5.54972C73.5943 5.75852 73.6348 6.01562 73.6348 6.32102V6.53409H71.112V6.09943H73.1234C73.1234 5.91477 73.0865 5.75 73.0126 5.60511C72.9402 5.46023 72.8365 5.34588 72.7015 5.26207C72.568 5.17827 72.4103 5.13636 72.2285 5.13636C72.0282 5.13636 71.8549 5.18608 71.7086 5.28551C71.5637 5.38352 71.4522 5.51136 71.3741 5.66903C71.296 5.8267 71.2569 5.99574 71.2569 6.17614V6.46591C71.2569 6.71307 71.2995 6.92259 71.3848 7.09446C71.4714 7.26491 71.5914 7.39489 71.7449 7.48438C71.8983 7.57244 72.0765 7.61648 72.2797 7.61648C72.4118 7.61648 72.5311 7.59801 72.6376 7.56108C72.7456 7.52273 72.8386 7.46591 72.9167 7.39062C72.9949 7.31392 73.0552 7.21875 73.0978 7.10511L73.5836 7.24148C73.5325 7.40625 73.4466 7.55114 73.3258 7.67614C73.2051 7.79972 73.0559 7.89631 72.8784 7.96591C72.7008 8.03409 72.5012 8.06818 72.2797 8.06818ZM75.7718 8.06818C75.4565 8.06818 75.1845 7.99858 74.9558 7.85938C74.7285 7.71875 74.5531 7.52273 74.4295 7.27131C74.3074 7.01847 74.2463 6.72443 74.2463 6.3892C74.2463 6.05398 74.3074 5.75852 74.4295 5.50284C74.5531 5.24574 74.725 5.04545 74.9451 4.90199C75.1667 4.7571 75.4252 4.68466 75.7207 4.68466C75.8912 4.68466 76.0595 4.71307 76.2257 4.76989C76.3919 4.8267 76.5431 4.91903 76.6795 5.04688C76.8159 5.1733 76.9245 5.34091 77.0055 5.54972C77.0865 5.75852 77.127 6.01562 77.127 6.32102V6.53409H74.6042V6.09943H76.6156C76.6156 5.91477 76.5787 5.75 76.5048 5.60511C76.4324 5.46023 76.3287 5.34588 76.1937 5.26207C76.0602 5.17827 75.9025 5.13636 75.7207 5.13636C75.5204 5.13636 75.3471 5.18608 75.2008 5.28551C75.0559 5.38352 74.9444 5.51136 74.8663 5.66903C74.7882 5.8267 74.7491 5.99574 74.7491 6.17614V6.46591C74.7491 6.71307 74.7917 6.92259 74.877 7.09446C74.9636 7.26491 75.0836 7.39489 75.237 7.48438C75.3904 7.57244 75.5687 7.61648 75.7718 7.61648C75.9039 7.61648 76.0233 7.59801 76.1298 7.56108C76.2377 7.52273 76.3308 7.46591 76.4089 7.39062C76.487 7.31392 76.5474 7.21875 76.59 7.10511L77.0758 7.24148C77.0247 7.40625 76.9387 7.55114 76.818 7.67614C76.6973 7.79972 76.5481 7.89631 76.3706 7.96591C76.193 8.03409 75.9934 8.06818 75.7718 8.06818ZM77.8919 8V4.72727H78.3777V5.22159H78.4118C78.4714 5.05966 78.5794 4.92827 78.7356 4.82741C78.8919 4.72656 79.068 4.67614 79.264 4.67614C79.301 4.67614 79.3471 4.67685 79.4025 4.67827C79.4579 4.67969 79.4998 4.68182 79.5282 4.68466V5.19602C79.5112 5.19176 79.4721 5.18537 79.411 5.17685C79.3514 5.1669 79.2882 5.16193 79.2214 5.16193C79.0623 5.16193 78.9203 5.19531 78.7953 5.26207C78.6717 5.32741 78.5737 5.41832 78.5012 5.5348C78.4302 5.64986 78.3947 5.78125 78.3947 5.92898V8H77.8919ZM80.1243 8V4.72727H80.6271V8H80.1243ZM80.38 4.18182C80.282 4.18182 80.1974 4.14844 80.1264 4.08168C80.0568 4.01491 80.022 3.93466 80.022 3.84091C80.022 3.74716 80.0568 3.6669 80.1264 3.60014C80.1974 3.53338 80.282 3.5 80.38 3.5C80.478 3.5 80.5618 3.53338 80.6314 3.60014C80.7024 3.6669 80.7379 3.74716 80.7379 3.84091C80.7379 3.93466 80.7024 4.01491 80.6314 4.08168C80.5618 4.14844 80.478 4.18182 80.38 4.18182ZM82.051 6.03125V8H81.5481V4.72727H82.0339V5.23864H82.0765C82.1532 5.07244 82.2697 4.93892 82.426 4.83807C82.5822 4.7358 82.7839 4.68466 83.0311 4.68466C83.2527 4.68466 83.4466 4.73011 83.6127 4.82102C83.7789 4.91051 83.9082 5.04688 84.0005 5.23011C84.0929 5.41193 84.139 5.64205 84.139 5.92045V8H83.6362V5.95455C83.6362 5.69744 83.5694 5.49716 83.4359 5.35369C83.3024 5.20881 83.1191 5.13636 82.8862 5.13636C82.7257 5.13636 82.5822 5.17116 82.4558 5.24077C82.3308 5.31037 82.2321 5.41193 82.1596 5.54545C82.0872 5.67898 82.051 5.84091 82.051 6.03125ZM86.3789 9.29545C86.136 9.29545 85.9272 9.2642 85.7525 9.2017C85.5778 9.14062 85.4322 9.05966 85.3157 8.95881C85.2006 8.85938 85.109 8.75284 85.0408 8.6392L85.4414 8.35795C85.4869 8.41761 85.5444 8.4858 85.614 8.5625C85.6836 8.64062 85.7788 8.7081 85.8995 8.76491C86.0217 8.82315 86.1815 8.85227 86.3789 8.85227C86.6431 8.85227 86.8612 8.78835 87.033 8.66051C87.2049 8.53267 87.2908 8.33239 87.2908 8.05966V7.39489H87.2482C87.2113 7.45455 87.1587 7.52841 87.0906 7.61648C87.0238 7.70312 86.9272 7.78054 86.8008 7.84872C86.6758 7.91548 86.5067 7.94886 86.2937 7.94886C86.0295 7.94886 85.7923 7.88636 85.582 7.76136C85.3732 7.63636 85.2077 7.45455 85.0856 7.21591C84.9648 6.97727 84.9045 6.6875 84.9045 6.34659C84.9045 6.01136 84.9634 5.71946 85.0813 5.47088C85.1992 5.22088 85.3633 5.0277 85.5735 4.89134C85.7837 4.75355 86.0266 4.68466 86.3022 4.68466C86.5153 4.68466 86.6843 4.72017 86.8093 4.79119C86.9357 4.8608 87.0323 4.94034 87.0991 5.02983C87.1673 5.1179 87.2198 5.19034 87.2567 5.24716H87.3079V4.72727H87.7937V8.09375C87.7937 8.375 87.7298 8.60369 87.6019 8.77983C87.4755 8.95739 87.305 9.08736 87.0906 9.16974C86.8775 9.25355 86.6403 9.29545 86.3789 9.29545ZM86.3619 7.49716C86.5636 7.49716 86.734 7.45099 86.8732 7.35866C87.0124 7.26634 87.1183 7.13352 87.1907 6.96023C87.2631 6.78693 87.2994 6.57955 87.2994 6.33807C87.2994 6.10227 87.2638 5.89418 87.1928 5.71378C87.1218 5.53338 87.0167 5.39205 86.8775 5.28977C86.7383 5.1875 86.5664 5.13636 86.3619 5.13636C86.1488 5.13636 85.9712 5.19034 85.8292 5.2983C85.6886 5.40625 85.5827 5.55114 85.5117 5.73295C85.4421 5.91477 85.4073 6.11648 85.4073 6.33807C85.4073 6.56534 85.4428 6.76634 85.5138 6.94105C85.5863 7.11435 85.6928 7.25071 85.8335 7.35014C85.9755 7.44815 86.1516 7.49716 86.3619 7.49716Z" fill="#F1F1F1"/>
<defs>
<linearGradient id="paint0_linear_1_91" x1="343" y1="376.5" x2="24.5" y2="120.5" gradientUnits="userSpaceOnUse">
<stop stop-color="#CE4F00"/>
<stop offset="0.525454" stop-color="#FE6100"/>
<stop offset="0.568665" stop-color="#FF741E"/>
<stop offset="1" stop-color="#FE6100"/>
</linearGradient>
</defs>
</svg>
